<svg viewBox="0 0 64 64" xmlns="http://www.w3.org/2000/svg" xmlns:xlink="http://www.w3.org/1999/xlink" width="64" height="64" fill="none">
	<rect id="icon 1" width="64" height="64" x="0" y="0" />
	<path id="矢量 1" d="M4.85663 34.0592C4.85663 34.5034 4.86753 34.9474 4.88932 35.3911C4.91112 35.8347 4.94379 36.2776 4.98733 36.7197C5.03087 37.1618 5.08523 37.6025 5.15041 38.042C5.2156 38.4814 5.29152 38.9189 5.37818 39.3546C5.46484 39.7903 5.56214 40.2236 5.67008 40.6545C5.77802 41.0854 5.89646 41.5134 6.02541 41.9385C6.15436 42.3636 6.29366 42.7853 6.44332 43.2035C6.59297 43.6218 6.7528 44.0361 6.92279 44.4465C7.09279 44.8569 7.27275 45.2629 7.46268 45.6645C7.65261 46.066 7.85228 46.4627 8.06168 46.8545C8.27109 47.2462 8.48998 47.6326 8.71835 48.0137C8.94673 48.3947 9.18431 48.7699 9.43111 49.1392C9.67791 49.5086 9.93361 49.8717 10.1982 50.2285C10.4629 50.5853 10.7361 50.9354 11.0179 51.2788C11.2997 51.6221 11.5898 51.9584 11.8881 52.2876C12.1864 52.6167 12.4926 52.9383 12.8067 53.2524C13.1208 53.5666 13.4425 53.8728 13.7716 54.1711C14.1008 54.4694 14.437 54.7595 14.7804 55.0413C15.1238 55.3231 15.4739 55.5963 15.8307 55.8609C16.1875 56.1256 16.5506 56.3813 16.9199 56.6281C17.2893 56.8749 17.6645 57.1124 18.0455 57.3408C18.4265 57.5692 18.8129 57.7881 19.2047 57.9975C19.5965 58.2069 19.9931 58.4066 20.3947 58.5965C20.7963 58.7864 21.2023 58.9664 21.6127 59.1364C22.0231 59.3064 22.4374 59.4662 22.8557 59.6159C23.2739 59.7655 23.6956 59.9048 24.1207 60.0338C24.5458 60.1627 24.9738 60.2812 25.4047 60.3891C25.8356 60.497 26.2689 60.5943 26.7046 60.681C27.1403 60.7677 27.5778 60.8436 28.0172 60.9088C28.4566 60.9739 28.8974 61.0283 29.3395 61.0718C29.7816 61.1154 30.2244 61.1481 30.6681 61.1699C31.1118 61.1917 31.5558 61.2026 32 61.2026C32.4442 61.2026 32.8882 61.1917 33.3319 61.1699C33.7755 61.1481 34.2184 61.1154 34.6605 61.0718C35.1026 61.0283 35.5433 60.9739 35.9827 60.9088C36.4222 60.8436 36.8597 60.7677 37.2954 60.681C37.7311 60.5943 38.1644 60.497 38.5953 60.3891C39.0262 60.2812 39.4542 60.1627 39.8793 60.0338C40.3044 59.9048 40.7261 59.7655 41.1443 59.6159C41.5626 59.4662 41.9769 59.3064 42.3873 59.1364C42.7977 58.9664 43.2037 58.7864 43.6053 58.5965C44.0068 58.4066 44.4035 58.2069 44.7953 57.9975C45.187 57.7881 45.5734 57.5692 45.9545 57.3408C46.3355 57.1124 46.7107 56.8749 47.08 56.6281C47.4494 56.3813 47.8125 56.1256 48.1693 55.8609C48.5261 55.5963 48.8762 55.3231 49.2195 55.0413C49.5629 54.7595 49.8992 54.4694 50.2284 54.1711C50.5575 53.8728 50.8791 53.5666 51.1932 53.2524C51.5074 52.9383 51.8136 52.6167 52.1119 52.2876C52.4102 51.9584 52.7003 51.6221 52.9821 51.2788C53.2639 50.9354 53.5371 50.5853 53.8017 50.2285C54.0664 49.8717 54.3221 49.5086 54.5689 49.1392C54.8157 48.7699 55.0532 48.3947 55.2816 48.0137C55.51 47.6326 55.7289 47.2462 55.9383 46.8545C56.1477 46.4627 56.3474 46.066 56.5373 45.6645C56.7272 45.2629 56.9072 44.8569 57.0772 44.4465C57.2472 44.0361 57.407 43.6218 57.5566 43.2035C57.7063 42.7853 57.8456 42.3636 57.9746 41.9385C58.1035 41.5134 58.222 41.0854 58.3299 40.6545C58.4378 40.2236 58.5351 39.7903 58.6218 39.3546C58.7085 38.9189 58.7844 38.4814 58.8496 38.0419C58.9147 37.6025 58.9691 37.1618 59.0126 36.7197C59.0562 36.2776 59.0889 35.8347 59.1106 35.3911C59.1325 34.9474 59.1433 34.5034 59.1433 34.0592C59.1433 33.615 59.1325 33.171 59.1107 32.7273C59.0889 32.2836 59.0562 31.8408 59.0126 31.3987C58.9691 30.9566 58.9147 30.5158 58.8496 30.0764C58.7844 29.637 58.7085 29.1995 58.6218 28.7638C58.5351 28.3281 58.4378 27.8948 58.3299 27.4639C58.222 27.033 58.1035 26.605 57.9746 26.1799C57.8456 25.7548 57.7063 25.3331 57.5566 24.9149C57.407 24.4966 57.2472 24.0823 57.0772 23.6719C56.9072 23.2615 56.7272 22.8555 56.5373 22.4539C56.3474 22.0523 56.1477 21.6557 55.9383 21.2639C55.7289 20.8721 55.51 20.4857 55.2816 20.1047C55.0532 19.7237 54.8157 19.3485 54.5689 18.9791C54.3221 18.6098 54.0664 18.2467 53.8017 17.8899C53.5371 17.5331 53.2639 17.183 52.9821 16.8396C52.7003 16.4962 52.4102 16.16 52.1119 15.8308C51.8136 15.5017 51.5074 15.18 51.1932 14.8659C50.8791 14.5518 50.5575 14.2456 50.2283 13.9473C49.8992 13.649 49.5629 13.3589 49.2196 13.0771C48.8762 12.7953 48.5261 12.5221 48.1693 12.2574C47.8125 11.9928 47.4494 11.7371 47.08 11.4903C46.7107 11.2435 46.3355 11.0059 45.9545 10.7776C45.5734 10.5492 45.187 10.3303 44.7953 10.1209C44.4035 9.91148 44.0068 9.71181 43.6053 9.52188C43.2037 9.33196 42.7977 9.15199 42.3873 8.982C41.9769 8.812 41.5626 8.65218 41.1443 8.50252C40.7261 8.35287 40.3044 8.21357 39.8793 8.08462C39.4542 7.95567 39.0262 7.83722 38.5953 7.72928C38.1644 7.62135 37.7311 7.52405 37.2954 7.43738C36.8597 7.35072 36.4222 7.2748 35.9827 7.20962C35.5433 7.14444 35.1026 7.09008 34.6605 7.04654C34.2184 7.00299 33.7755 6.97032 33.3318 6.94853C32.8882 6.92673 32.4442 6.91583 32 6.91583C31.5558 6.91583 31.1118 6.92673 30.6681 6.94853C30.2244 6.97032 29.7816 7.00299 29.3395 7.04654C28.8974 7.09008 28.4566 7.14444 28.0172 7.20962C27.5778 7.2748 27.1403 7.35072 26.7046 7.43738C26.2689 7.52405 25.8356 7.62135 25.4047 7.72928C24.9738 7.83722 24.5458 7.95567 24.1207 8.08462C23.6956 8.21357 23.2739 8.35287 22.8557 8.50252C22.4374 8.65218 22.0231 8.812 21.6127 8.982C21.2023 9.15199 20.7963 9.33196 20.3947 9.52188C19.9931 9.71181 19.5965 9.91148 19.2047 10.1209C18.8129 10.3303 18.4265 10.5492 18.0455 10.7776C17.6645 11.0059 17.2893 11.2435 16.9199 11.4903C16.5506 11.7371 16.1875 11.9928 15.8307 12.2574C15.4739 12.5221 15.1238 12.7953 14.7804 13.0771C14.437 13.3589 14.1008 13.649 13.7716 13.9473C13.4425 14.2456 13.1208 14.5518 12.8067 14.8659C12.4926 15.18 12.1864 15.5017 11.8881 15.8308C11.5898 16.16 11.2997 16.4962 11.0179 16.8396C10.7361 17.183 10.4629 17.5331 10.1982 17.8899C9.93361 18.2467 9.67791 18.6098 9.43111 18.9791C9.18431 19.3485 8.94673 19.7237 8.71835 20.1047C8.48998 20.4857 8.27109 20.8721 8.06168 21.2639C7.85228 21.6557 7.65261 22.0523 7.46268 22.4539C7.27275 22.8555 7.09279 23.2615 6.92279 23.6719C6.7528 24.0823 6.59297 24.4966 6.44332 24.9149C6.29366 25.3331 6.15436 25.7548 6.02541 26.1799C5.89646 26.605 5.77802 27.033 5.67008 27.4639C5.56214 27.8948 5.46484 28.3281 5.37818 28.7638C5.29152 29.1995 5.2156 29.637 5.15041 30.0764C5.08523 30.5158 5.03087 30.9566 4.98733 31.3987C4.94379 31.8408 4.91112 32.2836 4.88932 32.7273C4.86753 33.171 4.85663 33.615 4.85663 34.0592Z" fill="rgb(190,213,233)" fill-rule="nonzero" />
	<path id="矢量 2" d="M32 61.7725C16.7191 61.7725 4.28674 49.3402 4.28674 34.0592C4.28674 18.7782 16.7191 6.34592 32 6.34592C47.281 6.34592 59.7133 18.7782 59.7133 34.0592C59.7133 49.3402 47.281 61.7725 32 61.7725ZM32 7.48544C17.3472 7.48544 5.42626 19.4064 5.42626 34.0592C5.42626 48.712 17.3472 60.633 32 60.633C46.6528 60.633 58.5738 48.712 58.5738 34.0592C58.5738 19.4064 46.6528 7.48544 32 7.48544L32 7.48544Z" fill="rgb(104,96,63)" fill-rule="nonzero" />
	<path id="矢量 3" d="M10.3728 34.0592C10.3728 34.4132 10.3815 34.7669 10.3989 35.1204C10.4162 35.4739 10.4423 35.8268 10.4769 36.179C10.5116 36.5313 10.555 36.8825 10.6069 37.2326C10.6588 37.5827 10.7193 37.9313 10.7884 38.2785C10.8574 38.6256 10.9349 38.9708 11.0209 39.3142C11.1069 39.6575 11.2013 39.9985 11.3041 40.3372C11.4068 40.676 11.5178 41.0119 11.637 41.3452C11.7563 41.6784 11.8836 42.0086 12.0191 42.3356C12.1545 42.6626 12.2979 42.9861 12.4492 43.306C12.6006 43.626 12.7597 43.942 12.9265 44.2542C13.0934 44.5663 13.2678 44.8742 13.4497 45.1778C13.6317 45.4814 13.821 45.7803 14.0176 46.0746C14.2143 46.3689 14.418 46.6582 14.6289 46.9425C14.8397 47.2268 15.0574 47.5058 15.282 47.7794C15.5065 48.053 15.7376 48.3209 15.9753 48.5831C16.213 48.8454 16.457 49.1017 16.7073 49.3519C16.9575 49.6022 17.2138 49.8462 17.4761 50.0839C17.7383 50.3216 18.0063 50.5527 18.2799 50.7773C18.5535 51.0018 18.8324 51.2195 19.1167 51.4303C19.401 51.6412 19.6903 51.8449 19.9846 52.0416C20.2789 52.2382 20.5778 52.4275 20.8814 52.6095C21.185 52.7914 21.4929 52.9658 21.805 53.1327C22.1172 53.2995 22.4332 53.4586 22.7532 53.61C23.0731 53.7613 23.3966 53.9047 23.7236 54.0401C24.0506 54.1756 24.3808 54.3029 24.714 54.4222C25.0473 54.5414 25.3833 54.6524 25.722 54.7551C26.0607 54.8579 26.4017 54.9523 26.745 55.0383C27.0884 55.1243 27.4336 55.2018 27.7807 55.2708C28.1279 55.3399 28.4765 55.4004 28.8266 55.4523C29.1768 55.5043 29.5279 55.5476 29.8802 55.5823C30.2324 55.617 30.5853 55.643 30.9388 55.6604C31.2923 55.6777 31.6461 55.6864 32 55.6864C32.354 55.6864 32.7077 55.6777 33.0612 55.6604C33.4147 55.643 33.7676 55.617 34.1198 55.5823C34.4721 55.5476 34.8233 55.5043 35.1734 55.4523C35.5235 55.4004 35.8721 55.3399 36.2193 55.2708C36.5664 55.2018 36.9116 55.1243 37.255 55.0383C37.5983 54.9523 37.9393 54.8579 38.278 54.7551C38.6168 54.6524 38.9527 54.5414 39.286 54.4222C39.6192 54.3029 39.9494 54.1756 40.2764 54.0401C40.6034 53.9047 40.9269 53.7613 41.2468 53.61C41.5668 53.4586 41.8828 53.2995 42.195 53.1327C42.5071 52.9658 42.815 52.7914 43.1186 52.6095C43.4222 52.4275 43.7211 52.2382 44.0154 52.0416C44.3097 51.8449 44.599 51.6412 44.8833 51.4303C45.1676 51.2195 45.4465 51.0018 45.7202 50.7773C45.9938 50.5527 46.2617 50.3216 46.5239 50.0839C46.7862 49.8462 47.0425 49.6022 47.2927 49.3519C47.543 49.1017 47.787 48.8454 48.0247 48.5831C48.2624 48.3209 48.4935 48.053 48.7181 47.7794C48.9426 47.5058 49.1603 47.2268 49.3711 46.9425C49.582 46.6582 49.7857 46.3689 49.9824 46.0746C50.179 45.7803 50.3683 45.4814 50.5503 45.1778C50.7322 44.8742 50.9066 44.5663 51.0735 44.2542C51.2403 43.942 51.3994 43.626 51.5508 43.306C51.7021 42.9861 51.8455 42.6626 51.9809 42.3356C52.1164 42.0086 52.2437 41.6784 52.363 41.3452C52.4822 41.0119 52.5932 40.676 52.6959 40.3372C52.7987 39.9985 52.8931 39.6575 52.9791 39.3142C53.0651 38.9708 53.1426 38.6256 53.2116 38.2785C53.2807 37.9313 53.3412 37.5827 53.3931 37.2326C53.4451 36.8825 53.4884 36.5313 53.5231 36.179C53.5578 35.8268 53.5838 35.4739 53.6012 35.1204C53.6185 34.7669 53.6272 34.4132 53.6272 34.0592C53.6272 33.7053 53.6185 33.3515 53.6012 32.998C53.5838 32.6445 53.5578 32.2916 53.5231 31.9394C53.4884 31.5871 53.4451 31.236 53.3931 30.8858C53.3412 30.5357 53.2807 30.1871 53.2116 29.84C53.1426 29.4928 53.0651 29.1476 52.9791 28.8042C52.8931 28.4609 52.7987 28.1199 52.6959 27.7812C52.5932 27.4425 52.4822 27.1065 52.363 26.7732C52.2437 26.44 52.1164 26.1098 51.9809 25.7828C51.8455 25.4558 51.7021 25.1323 51.5508 24.8124C51.3994 24.4924 51.2403 24.1764 51.0735 23.8642C50.9066 23.5521 50.7322 23.2442 50.5503 22.9406C50.3683 22.637 50.179 22.3381 49.9824 22.0438C49.7857 21.7495 49.582 21.4602 49.3711 21.1759C49.1603 20.8916 48.9426 20.6127 48.7181 20.3391C48.4935 20.0655 48.2624 19.7975 48.0247 19.5353C47.787 19.273 47.543 19.0167 47.2927 18.7665C47.0425 18.5162 46.7862 18.2722 46.5239 18.0345C46.2617 17.7968 45.9938 17.5657 45.7201 17.3412C45.4465 17.1166 45.1676 16.8989 44.8833 16.6881C44.599 16.4772 44.3097 16.2735 44.0154 16.0768C43.7211 15.8802 43.4222 15.6909 43.1186 15.5089C42.815 15.327 42.5071 15.1526 42.195 14.9857C41.8828 14.8189 41.5668 14.6598 41.2468 14.5084C40.9269 14.3571 40.6034 14.2137 40.2764 14.0783C39.9494 13.9428 39.6192 13.8155 39.286 13.6962C38.9527 13.577 38.6168 13.466 38.278 13.3633C37.9393 13.2605 37.5983 13.1661 37.255 13.0801C36.9116 12.9941 36.5664 12.9166 36.2193 12.8476C35.8721 12.7785 35.5235 12.718 35.1734 12.6661C34.8233 12.6142 34.4721 12.5708 34.1198 12.5361C33.7676 12.5015 33.4147 12.4754 33.0612 12.4581C32.7077 12.4407 32.354 12.432 32 12.432C31.6461 12.432 31.2923 12.4407 30.9388 12.4581C30.5853 12.4754 30.2324 12.5015 29.8802 12.5361C29.5279 12.5708 29.1768 12.6142 28.8266 12.6661C28.4765 12.718 28.1279 12.7785 27.7807 12.8476C27.4336 12.9166 27.0884 12.9941 26.745 13.0801C26.4017 13.1661 26.0607 13.2605 25.722 13.3633C25.3833 13.466 25.0473 13.577 24.714 13.6962C24.3808 13.8155 24.0506 13.9428 23.7236 14.0783C23.3966 14.2137 23.0731 14.3571 22.7532 14.5084C22.4332 14.6598 22.1172 14.8189 21.805 14.9857C21.4929 15.1526 21.185 15.327 20.8814 15.5089C20.5778 15.6909 20.2789 15.8802 19.9846 16.0768C19.6903 16.2735 19.401 16.4772 19.1167 16.6881C18.8324 16.8989 18.5535 17.1166 18.2799 17.3412C18.0062 17.5657 17.7383 17.7968 17.4761 18.0345C17.2138 18.2722 16.9575 18.5162 16.7073 18.7665C16.457 19.0167 16.213 19.273 15.9753 19.5353C15.7376 19.7975 15.5065 20.0655 15.282 20.3391C15.0574 20.6127 14.8397 20.8916 14.6289 21.1759C14.418 21.4602 14.2143 21.7495 14.0176 22.0438C13.821 22.3381 13.6317 22.637 13.4497 22.9406C13.2678 23.2442 13.0934 23.5521 12.9265 23.8642C12.7597 24.1764 12.6006 24.4924 12.4492 24.8124C12.2979 25.1324 12.1545 25.4558 12.0191 25.7828C11.8836 26.1098 11.7563 26.44 11.637 26.7732C11.5178 27.1065 11.4068 27.4425 11.3041 27.7812C11.2013 28.1199 11.1069 28.4609 11.0209 28.8042C10.9349 29.1476 10.8574 29.4928 10.7884 29.84C10.7193 30.1871 10.6588 30.5357 10.6069 30.8858C10.5549 31.236 10.5116 31.5871 10.4769 31.9394C10.4423 32.2916 10.4162 32.6445 10.3989 32.998C10.3815 33.3515 10.3728 33.7053 10.3728 34.0592L10.3728 34.0592Z" fill="rgb(236,243,254)" fill-rule="nonzero" />
	<path id="矢量 4" d="M32 56.2566C19.7606 56.2566 9.80255 46.2989 9.80255 34.0592C9.80255 21.8195 19.7606 11.8624 32 11.8624C44.2393 11.8624 54.1968 21.8198 54.1968 34.0592C54.1968 46.2986 44.2393 56.2566 32 56.2566L32 56.2566ZM32 13.0019C20.3888 13.0019 10.9421 22.448 10.9421 34.0592C10.9421 45.6704 20.3885 55.1171 32 55.1171C43.6115 55.1171 53.0573 45.6707 53.0573 34.0592C53.0573 22.4477 43.6112 13.0019 32 13.0019L32 13.0019Z" fill="rgb(104,96,63)" fill-rule="nonzero" />
	<path id="矢量 5" d="M16.0054 34.0592C16.0054 34.583 16.0311 35.1056 16.0825 35.6269C16.1338 36.1483 16.2106 36.6658 16.3128 37.1796C16.415 37.6934 16.5421 38.2009 16.6942 38.7022C16.8462 39.2035 17.0225 39.6961 17.2229 40.18C17.4234 40.664 17.6471 41.137 17.894 41.599C18.141 42.061 18.41 42.5097 18.701 42.9453C18.992 43.3809 19.3037 43.8011 19.636 44.206C19.9684 44.611 20.3197 44.9986 20.6901 45.3691C21.0605 45.7395 21.4482 46.0908 21.8531 46.4232C22.2581 46.7555 22.6783 47.0672 23.1139 47.3582C23.5494 47.6492 23.9982 47.9182 24.4602 48.1651C24.9222 48.4121 25.3952 48.6358 25.8791 48.8362C26.3631 49.0367 26.8557 49.213 27.357 49.365C27.8583 49.5171 28.3658 49.6442 28.8796 49.7464C29.3934 49.8486 29.9109 49.9254 30.4323 49.9767C30.9536 50.0281 31.4762 50.0538 32 50.0538C32.5238 50.0538 33.0464 50.0281 33.5677 49.9767C34.0891 49.9254 34.6066 49.8486 35.1204 49.7464C35.6341 49.6442 36.1417 49.5171 36.643 49.365C37.1442 49.213 37.6369 49.0367 38.1208 48.8362C38.6048 48.6358 39.0778 48.4121 39.5398 48.1651C40.0018 47.9182 40.4505 47.6492 40.8861 47.3582C41.3217 47.0672 41.7419 46.7555 42.1468 46.4232C42.5518 46.0908 42.9394 45.7395 43.3099 45.3691C43.6803 44.9986 44.0316 44.611 44.364 44.206C44.6963 43.8011 45.0079 43.3809 45.299 42.9453C45.59 42.5097 45.859 42.061 46.1059 41.599C46.3529 41.137 46.5766 40.664 46.777 40.18C46.9775 39.6961 47.1538 39.2035 47.3058 38.7022C47.4579 38.2009 47.585 37.6934 47.6872 37.1796C47.7894 36.6658 47.8662 36.1483 47.9175 35.6269C47.9689 35.1056 47.9946 34.583 47.9946 34.0592C47.9946 33.5354 47.9689 33.0128 47.9175 32.4915C47.8662 31.9701 47.7894 31.4526 47.6872 30.9388C47.585 30.425 47.4579 29.9175 47.3058 29.4162C47.1538 28.9149 46.9775 28.4223 46.777 27.9383C46.5766 27.4544 46.3529 26.9814 46.1059 26.5194C45.859 26.0574 45.59 25.6087 45.299 25.1731C45.0079 24.7375 44.6963 24.3173 44.364 23.9124C44.0316 23.5074 43.6803 23.1197 43.3099 22.7493C42.9394 22.3789 42.5518 22.0276 42.1468 21.6952C41.7419 21.3629 41.3217 21.0512 40.8861 20.7602C40.4505 20.4692 40.0018 20.2002 39.5398 19.9533C39.0778 19.7063 38.6048 19.4826 38.1208 19.2822C37.6369 19.0817 37.1442 18.9054 36.643 18.7534C36.1417 18.6013 35.6342 18.4742 35.1204 18.372C34.6066 18.2698 34.0891 18.193 33.5677 18.1417C33.0464 18.0903 32.5238 18.0646 32 18.0646C31.4762 18.0646 30.9536 18.0903 30.4323 18.1417C29.9109 18.193 29.3934 18.2698 28.8796 18.372C28.3658 18.4742 27.8583 18.6013 27.357 18.7534C26.8557 18.9054 26.3631 19.0817 25.8791 19.2822C25.3952 19.4826 24.9222 19.7063 24.4602 19.9533C23.9982 20.2002 23.5494 20.4692 23.1139 20.7602C22.6783 21.0512 22.2581 21.3629 21.8531 21.6952C21.4482 22.0276 21.0605 22.3789 20.6901 22.7493C20.3197 23.1197 19.9684 23.5074 19.636 23.9124C19.3037 24.3173 18.992 24.7375 18.701 25.1731C18.41 25.6087 18.141 26.0574 17.894 26.5194C17.6471 26.9814 17.4234 27.4544 17.2229 27.9383C17.0225 28.4223 16.8462 28.9149 16.6942 29.4162C16.5421 29.9175 16.415 30.425 16.3128 30.9388C16.2106 31.4526 16.1338 31.9701 16.0825 32.4915C16.0311 33.0128 16.0054 33.5354 16.0054 34.0592Z" fill="rgb(255,255,255)" fill-rule="nonzero" />
	<path id="矢量 6" d="M32 50.6237C22.8663 50.6237 15.4355 43.1926 15.4355 34.0592C15.4355 24.9258 22.8663 17.495 32 17.495C41.1338 17.495 48.5642 24.9254 48.5642 34.0592C48.5642 43.193 41.1338 50.6237 32 50.6237ZM32 18.6346C23.4944 18.6346 16.5751 25.5542 16.5751 34.0592C16.5751 42.5648 23.4947 49.4842 32 49.4842C40.505 49.4842 47.4247 42.5645 47.4247 34.0592C47.4247 25.5542 40.505 18.6346 32 18.6346Z" fill="rgb(104,96,63)" fill-rule="nonzero" />
	<path id="矢量 7" d="M11.2595 37.8528C11.2594 38.0104 11.2671 38.1676 11.2825 38.3245C11.2978 38.4814 11.3209 38.6371 11.3516 38.7917C11.3822 38.9463 11.4204 39.099 11.4661 39.2498C11.5118 39.4007 11.5648 39.5489 11.6251 39.6946C11.6853 39.8402 11.7526 39.9825 11.8268 40.1216C11.9011 40.2606 11.982 40.3956 12.0695 40.5267C12.157 40.6578 12.2507 40.7843 12.3507 40.9061C12.4507 41.028 12.5563 41.1446 12.6678 41.2561C12.7792 41.3676 12.8958 41.4733 13.0176 41.5734C13.1394 41.6734 13.2659 41.7672 13.3969 41.8548C13.5279 41.9423 13.6629 42.0233 13.8019 42.0976C13.9409 42.1719 14.0832 42.2393 14.2288 42.2996C14.3744 42.3599 14.5226 42.413 14.6735 42.4587C14.8243 42.5045 14.977 42.5428 15.1316 42.5735C15.2861 42.6043 15.4419 42.6274 15.5987 42.6428C15.7556 42.6583 15.9128 42.666 16.0704 42.666C16.228 42.666 16.3852 42.6583 16.5421 42.6428C16.6989 42.6274 16.8547 42.6043 17.0092 42.5735C17.1638 42.5428 17.3165 42.5045 17.4674 42.4587C17.6182 42.413 17.7664 42.3599 17.912 42.2996C18.0576 42.2393 18.1999 42.1719 18.3389 42.0976C18.4779 42.0233 18.6129 41.9423 18.7439 41.8548C18.875 41.7672 19.0014 41.6734 19.1232 41.5734C19.245 41.4733 19.3616 41.3676 19.473 41.2561C19.5845 41.1446 19.6901 41.028 19.7901 40.9061C19.8901 40.7843 19.9838 40.6578 20.0713 40.5267C20.1588 40.3956 20.2397 40.2606 20.314 40.1216C20.3882 39.9825 20.4555 39.8402 20.5158 39.6946C20.576 39.5489 20.629 39.4007 20.6747 39.2498C20.7204 39.099 20.7586 38.9463 20.7892 38.7917C20.8199 38.6371 20.843 38.4814 20.8583 38.3245C20.8737 38.1676 20.8814 38.0104 20.8813 37.8528C20.8813 37.6952 20.8736 37.5381 20.8581 37.3812C20.8427 37.2244 20.8196 37.0688 20.7888 36.9142C20.7581 36.7597 20.7199 36.6071 20.6741 36.4563C20.6284 36.3055 20.5754 36.1573 20.5151 36.0118C20.4548 35.8662 20.3875 35.7239 20.3132 35.585C20.2389 35.446 20.158 35.311 20.0705 35.18C19.983 35.049 19.8892 34.9226 19.7893 34.8008C19.6893 34.679 19.5836 34.5624 19.4722 34.451C19.3608 34.3396 19.2442 34.2339 19.1224 34.1339C19.0006 34.034 18.8742 33.9402 18.7432 33.8527C18.6122 33.7652 18.4772 33.6843 18.3382 33.61C18.1993 33.5357 18.057 33.4684 17.9114 33.4081C17.7659 33.3478 17.6177 33.2948 17.4669 33.2491C17.3161 33.2033 17.1635 33.1651 17.009 33.1344C16.8544 33.1036 16.6988 33.0805 16.542 33.0651C16.3851 33.0496 16.228 33.0419 16.0704 33.0419C15.9128 33.0419 15.7557 33.0496 15.5989 33.0651C15.442 33.0805 15.2864 33.1036 15.1318 33.1344C14.9773 33.1651 14.8247 33.2033 14.6739 33.2491C14.5231 33.2948 14.3749 33.3478 14.2294 33.4081C14.0838 33.4684 13.9415 33.5357 13.8026 33.61C13.6636 33.6843 13.5286 33.7652 13.3976 33.8527C13.2666 33.9402 13.1402 34.034 13.0184 34.1339C12.8966 34.2339 12.78 34.3396 12.6686 34.451C12.5572 34.5624 12.4515 34.679 12.3515 34.8008C12.2516 34.9226 12.1578 35.049 12.0703 35.18C11.9828 35.311 11.9019 35.446 11.8276 35.585C11.7533 35.7239 11.686 35.8662 11.6257 36.0118C11.5654 36.1573 11.5124 36.3055 11.4667 36.4563C11.4209 36.6071 11.3827 36.7597 11.352 36.9142C11.3212 37.0688 11.2981 37.2244 11.2827 37.3812C11.2672 37.5381 11.2595 37.6952 11.2595 37.8528L11.2595 37.8528Z" fill="rgb(159,223,0)" fill-rule="nonzero" />
	<path id="矢量 8" d="M16.0704 43.2333C13.1037 43.2333 10.6899 40.8195 10.6899 37.8528C10.6899 34.8861 13.1037 32.4723 16.0704 32.4723C19.0368 32.4723 21.4506 34.8861 21.4506 37.8528C21.4506 40.8195 19.0368 43.2333 16.0704 43.2333L16.0704 43.2333ZM16.0704 33.6115C13.7319 33.6115 11.8291 35.5139 11.8291 37.8528C11.8291 40.1917 13.7315 42.0941 16.0704 42.0941C18.4087 42.0941 20.3111 40.1917 20.3111 37.8528C20.3111 35.5139 18.4087 33.6115 16.0704 33.6115Z" fill="rgb(104,96,63)" fill-rule="nonzero" />
	<path id="矢量 9" d="M39.0468 7.53952C39.0468 7.69708 39.0545 7.85426 39.0699 8.01107C39.0854 8.16787 39.1085 8.32354 39.1392 8.47807C39.1699 8.63261 39.2082 8.78526 39.2539 8.93604C39.2996 9.08682 39.3527 9.23499 39.413 9.38056C39.4733 9.52613 39.5405 9.66839 39.6148 9.80735C39.6891 9.94631 39.77 10.0813 39.8575 10.2123C39.9451 10.3433 40.0388 10.4697 40.1388 10.5915C40.2387 10.7133 40.3444 10.8299 40.4558 10.9413C40.5672 11.0527 40.6838 11.1584 40.8056 11.2584C40.9274 11.3583 41.0538 11.4521 41.1849 11.5396C41.3159 11.6272 41.4508 11.7081 41.5898 11.7823C41.7288 11.8566 41.871 11.9239 42.0166 11.9842C42.1622 12.0445 42.3103 12.0975 42.4611 12.1432C42.6119 12.189 42.7645 12.2272 42.9191 12.258C43.0736 12.2887 43.2293 12.3118 43.3861 12.3272C43.5429 12.3427 43.7001 12.3504 43.8576 12.3504C44.0152 12.3504 44.1724 12.3427 44.3292 12.3272C44.486 12.3118 44.6417 12.2887 44.7962 12.258C44.9507 12.2272 45.1034 12.189 45.2542 12.1432C45.4049 12.0975 45.5531 12.0445 45.6987 11.9842C45.8442 11.9239 45.9865 11.8566 46.1255 11.7823C46.2644 11.7081 46.3994 11.6272 46.5304 11.5396C46.6614 11.4521 46.7878 11.3583 46.9096 11.2584C47.0314 11.1584 47.148 11.0527 47.2594 10.9413C47.3708 10.8299 47.4765 10.7133 47.5765 10.5915C47.6764 10.4697 47.7702 10.3433 47.8577 10.2123C47.9453 10.0813 48.0262 9.94631 48.1004 9.80735C48.1747 9.66839 48.242 9.52613 48.3023 9.38056C48.3626 9.23499 48.4156 9.08682 48.4614 8.93604C48.5071 8.78526 48.5453 8.63261 48.5761 8.47807C48.6068 8.32354 48.6299 8.16787 48.6453 8.01107C48.6608 7.85426 48.6685 7.69708 48.6685 7.53952C48.6685 7.38196 48.6608 7.22477 48.6453 7.06797C48.6299 6.91117 48.6068 6.7555 48.5761 6.60096C48.5453 6.44643 48.5071 6.29377 48.4614 6.14299C48.4156 5.99222 48.3626 5.84404 48.3023 5.69847C48.242 5.55291 48.1747 5.41064 48.1004 5.27168C48.0262 5.13273 47.9453 4.99774 47.8577 4.86674C47.7702 4.73573 47.6764 4.60932 47.5765 4.48753C47.4765 4.36573 47.3708 4.24913 47.2594 4.13771C47.148 4.0263 47.0314 3.92061 46.9096 3.82066C46.7878 3.7207 46.6614 3.62695 46.5304 3.53942C46.3994 3.45188 46.2644 3.37097 46.1255 3.2967C45.9865 3.22243 45.8442 3.15514 45.6987 3.09484C45.5531 3.03455 45.4049 2.98153 45.2542 2.93579C45.1034 2.89005 44.9507 2.85182 44.7962 2.82108C44.6417 2.79034 44.486 2.76725 44.3292 2.7518C44.1724 2.73636 44.0152 2.72864 43.8576 2.72864C43.7001 2.72864 43.5429 2.73636 43.3861 2.7518C43.2293 2.76725 43.0736 2.79034 42.9191 2.82108C42.7645 2.85182 42.6119 2.89005 42.4611 2.93579C42.3103 2.98153 42.1622 3.03455 42.0166 3.09484C41.871 3.15514 41.7288 3.22243 41.5898 3.2967C41.4508 3.37097 41.3159 3.45188 41.1849 3.53942C41.0538 3.62695 40.9274 3.7207 40.8056 3.82066C40.6838 3.92061 40.5672 4.0263 40.4558 4.13771C40.3444 4.24913 40.2387 4.36573 40.1388 4.48753C40.0388 4.60932 39.9451 4.73573 39.8575 4.86674C39.77 4.99774 39.6891 5.13273 39.6148 5.27168C39.5405 5.41064 39.4733 5.55291 39.413 5.69847C39.3527 5.84404 39.2996 5.99222 39.2539 6.14299C39.2082 6.29377 39.1699 6.44643 39.1392 6.60096C39.1085 6.7555 39.0854 6.91117 39.0699 7.06797C39.0545 7.22477 39.0468 7.38196 39.0468 7.53952Z" fill="rgb(255,236,67)" fill-rule="nonzero" />
	<path id="矢量 10" d="M43.8576 12.9197C40.8909 12.9197 38.4771 10.5059 38.4771 7.53952C38.4771 4.5728 40.8909 2.15904 43.8576 2.15904C46.8243 2.15904 49.2381 4.5728 49.2381 7.53952C49.2381 10.5059 46.8243 12.9197 43.8576 12.9197L43.8576 12.9197ZM43.8576 3.29856C41.519 3.29856 39.6163 5.20096 39.6163 7.53984C39.6163 9.87808 41.5187 11.7805 43.8576 11.7805C46.1965 11.7805 48.0989 9.87808 48.0989 7.53984C48.0986 5.20096 46.1962 3.29856 43.8576 3.29856Z" fill="rgb(107,95,2)" fill-rule="nonzero" />
	<path id="矢量 11" d="M45.0131 56.1338C45.0131 56.2913 45.0208 56.4485 45.0363 56.6053C45.0517 56.7621 45.0748 56.9178 45.1056 57.0723C45.1363 57.2269 45.1745 57.3795 45.2203 57.5303C45.266 57.6811 45.319 57.8293 45.3793 57.9748C45.4396 58.1204 45.5069 58.2626 45.5812 58.4016C45.6555 58.5406 45.7364 58.6755 45.8239 58.8066C45.9114 58.9376 46.0052 59.064 46.1051 59.1858C46.2051 59.3076 46.3108 59.4242 46.4222 59.5356C46.5336 59.647 46.6502 59.7527 46.772 59.8526C46.8938 59.9526 47.0202 60.0463 47.1512 60.1339C47.2822 60.2214 47.4172 60.3023 47.5562 60.3766C47.6951 60.4509 47.8374 60.5182 47.983 60.5784C48.1285 60.6387 48.2767 60.6918 48.4275 60.7375C48.5783 60.7832 48.7309 60.8215 48.8854 60.8522C49.04 60.883 49.1957 60.906 49.3525 60.9215C49.5093 60.9369 49.6664 60.9447 49.824 60.9447C49.9816 60.9447 50.1388 60.9369 50.2956 60.9215C50.4524 60.906 50.608 60.883 50.7626 60.8522C50.9171 60.8215 51.0698 60.7832 51.2205 60.7375C51.3713 60.6918 51.5195 60.6387 51.665 60.5784C51.8106 60.5182 51.9529 60.4509 52.0918 60.3766C52.2308 60.3023 52.3658 60.2214 52.4968 60.1339C52.6278 60.0463 52.7542 59.9526 52.876 59.8526C52.9978 59.7527 53.1144 59.647 53.2258 59.5356C53.3372 59.4242 53.4429 59.3076 53.5429 59.1858C53.6428 59.064 53.7366 58.9376 53.8241 58.8066C53.9116 58.6755 53.9925 58.5406 54.0668 58.4016C54.1411 58.2626 54.2084 58.1204 54.2687 57.9748C54.329 57.8293 54.382 57.6811 54.4277 57.5303C54.4735 57.3795 54.5117 57.2269 54.5424 57.0723C54.5732 56.9178 54.5963 56.7621 54.6117 56.6053C54.6272 56.4485 54.6349 56.2913 54.6349 56.1338C54.6349 55.9762 54.6272 55.819 54.6117 55.6622C54.5963 55.5054 54.5732 55.3498 54.5424 55.1952C54.5117 55.0407 54.4735 54.888 54.4277 54.7373C54.382 54.5865 54.329 54.4383 54.2687 54.2927C54.2084 54.1472 54.1411 54.0049 54.0668 53.8659C53.9925 53.727 53.9116 53.592 53.8241 53.461C53.7366 53.33 53.6428 53.2036 53.5429 53.0818C53.4429 52.96 53.3372 52.8434 53.2258 52.732C53.1144 52.6206 52.9978 52.5149 52.876 52.4149C52.7542 52.315 52.6278 52.2212 52.4968 52.1337C52.3658 52.0461 52.2308 51.9652 52.0918 51.891C51.9529 51.8167 51.8106 51.7494 51.665 51.6891C51.5195 51.6288 51.3713 51.5758 51.2205 51.5301C51.0698 51.4843 50.9171 51.4461 50.7626 51.4153C50.608 51.3846 50.4524 51.3615 50.2956 51.3461C50.1388 51.3306 49.9816 51.3229 49.824 51.3229C49.6664 51.3229 49.5093 51.3306 49.3525 51.3461C49.1957 51.3615 49.04 51.3846 48.8854 51.4153C48.7309 51.4461 48.5783 51.4843 48.4275 51.5301C48.2767 51.5758 48.1285 51.6288 47.983 51.6891C47.8374 51.7494 47.6951 51.8167 47.5562 51.891C47.4172 51.9652 47.2822 52.0461 47.1512 52.1337C47.0202 52.2212 46.8938 52.315 46.772 52.4149C46.6502 52.5149 46.5336 52.6206 46.4222 52.732C46.3108 52.8434 46.2051 52.96 46.1051 53.0818C46.0052 53.2036 45.9114 53.33 45.8239 53.461C45.7364 53.592 45.6555 53.727 45.5812 53.8659C45.5069 54.0049 45.4396 54.1472 45.3793 54.2927C45.319 54.4383 45.266 54.5865 45.2203 54.7373C45.1745 54.888 45.1363 55.0407 45.1056 55.1952C45.0748 55.3498 45.0517 55.5054 45.0363 55.6622C45.0208 55.819 45.0131 55.9762 45.0131 56.1338Z" fill="rgb(255,199,0)" fill-rule="nonzero" />
	<path id="矢量 12" d="M49.824 61.5142C46.8572 61.5142 44.4435 59.1005 44.4435 56.1338C44.4435 53.1674 46.8572 50.7536 49.824 50.7536C52.7907 50.7536 55.2044 53.1674 55.2044 56.1338C55.2044 59.1005 52.7907 61.5142 49.824 61.5142L49.824 61.5142ZM49.824 51.8931C47.4854 51.8931 45.5827 53.7955 45.5827 56.1338C45.5827 58.4723 47.4851 60.375 49.824 60.375C52.1628 60.375 54.0652 58.4726 54.0652 56.1338C54.0652 53.7955 52.1628 51.8931 49.824 51.8931Z" fill="rgb(104,96,63)" fill-rule="nonzero" />
	<path id="矢量 13" d="M22.056 34.0592C22.056 34.3849 22.072 34.7098 22.1039 35.0339C22.1358 35.358 22.1836 35.6798 22.2471 35.9992C22.3106 36.3186 22.3897 36.6341 22.4842 36.9458C22.5788 37.2575 22.6883 37.5637 22.813 37.8646C22.9376 38.1655 23.0767 38.4595 23.2302 38.7468C23.3837 39.034 23.551 39.313 23.7319 39.5838C23.9128 39.8546 24.1066 40.1159 24.3132 40.3676C24.5198 40.6194 24.7383 40.8604 24.9686 41.0907C25.1988 41.321 25.4399 41.5394 25.6916 41.746C25.9434 41.9526 26.2046 42.1464 26.4754 42.3273C26.7462 42.5083 27.0252 42.6755 27.3125 42.829C27.5997 42.9826 27.8937 43.1216 28.1946 43.2463C28.4955 43.3709 28.8018 43.4805 29.1134 43.575C29.4251 43.6696 29.7406 43.7486 30.0601 43.8121C30.3795 43.8757 30.7012 43.9234 31.0253 43.9553C31.3495 43.9872 31.6744 44.0032 32 44.0032C32.3257 44.0032 32.6506 43.9872 32.9747 43.9553C33.2988 43.9234 33.6206 43.8757 33.94 43.8121C34.2594 43.7486 34.575 43.6696 34.8866 43.575C35.1983 43.4805 35.5045 43.3709 35.8054 43.2463C36.1063 43.1216 36.4004 42.9826 36.6876 42.829C36.9748 42.6755 37.2538 42.5083 37.5246 42.3273C37.7954 42.1464 38.0567 41.9526 38.3084 41.746C38.5602 41.5394 38.8012 41.321 39.0315 41.0907C39.2618 40.8604 39.4802 40.6194 39.6868 40.3676C39.8935 40.1159 40.0872 39.8546 40.2682 39.5838C40.4491 39.313 40.6163 39.034 40.7699 38.7468C40.9234 38.4595 41.0625 38.1655 41.1871 37.8646C41.3117 37.5637 41.4213 37.2574 41.5158 36.9458C41.6104 36.6341 41.6894 36.3186 41.753 35.9992C41.8165 35.6798 41.8642 35.358 41.8961 35.0339C41.9281 34.7098 41.944 34.3849 41.944 34.0592C41.944 33.7335 41.9281 33.4086 41.8961 33.0845C41.8642 32.7604 41.8165 32.4386 41.753 32.1192C41.6894 31.7998 41.6104 31.4843 41.5158 31.1726C41.4213 30.861 41.3117 30.5547 41.1871 30.2538C41.0625 29.9529 40.9234 29.6589 40.7699 29.3716C40.6163 29.0844 40.4491 28.8054 40.2682 28.5346C40.0872 28.2638 39.8935 28.0026 39.6868 27.7508C39.4802 27.499 39.2618 27.258 39.0315 27.0277C38.8012 26.7974 38.5602 26.579 38.3084 26.3724C38.0567 26.1658 37.7954 25.972 37.5246 25.7911C37.2538 25.6101 36.9748 25.4429 36.6876 25.2894C36.4004 25.1359 36.1063 24.9968 35.8054 24.8721C35.5045 24.7475 35.1983 24.6379 34.8866 24.5434C34.575 24.4489 34.2594 24.3698 33.94 24.3063C33.6206 24.2427 33.2988 24.195 32.9747 24.1631C32.6506 24.1312 32.3257 24.1152 32 24.1152C31.6744 24.1152 31.3495 24.1312 31.0253 24.1631C30.7012 24.195 30.3795 24.2427 30.0601 24.3063C29.7406 24.3698 29.4251 24.4489 29.1134 24.5434C28.8018 24.6379 28.4955 24.7475 28.1946 24.8721C27.8937 24.9968 27.5997 25.1359 27.3125 25.2894C27.0252 25.4429 26.7462 25.6101 26.4754 25.7911C26.2046 25.972 25.9434 26.1658 25.6916 26.3724C25.4399 26.579 25.1988 26.7974 24.9686 27.0277C24.7383 27.258 24.5198 27.499 24.3132 27.7508C24.1066 28.0026 23.9128 28.2638 23.7319 28.5346C23.551 28.8054 23.3837 29.0844 23.2302 29.3716C23.0767 29.6589 22.9376 29.9529 22.813 30.2538C22.6883 30.5547 22.5788 30.861 22.4842 31.1726C22.3897 31.4843 22.3106 31.7998 22.2471 32.1192C22.1836 32.4386 22.1358 32.7604 22.1039 33.0845C22.072 33.4086 22.056 33.7335 22.056 34.0592Z" fill="rgb(236,243,254)" fill-rule="nonzero" />
	<path id="矢量 14" d="M32 44.5734C26.2026 44.5734 21.4858 39.8566 21.4858 34.0592C21.4858 28.2618 26.2026 23.5456 32 23.5456C37.7975 23.5456 42.5136 28.2618 42.5136 34.0592C42.5136 39.8566 37.7975 44.5734 32 44.5734ZM32 24.6851C26.8307 24.6851 22.6253 28.8902 22.6253 34.0592C22.6253 39.2282 26.8307 43.4339 32 43.4339C37.1693 43.4339 41.3741 39.2285 41.3741 34.0592C41.3741 28.8899 37.1693 24.6851 32 24.6851Z" fill="rgb(104,96,63)" fill-rule="nonzero" />
</svg>
