<?xml version="1.0" standalone="no"?>
<!DOCTYPE svg PUBLIC "-//W3C//DTD SVG 20010904//EN"
 "http://www.w3.org/TR/2001/REC-SVG-20010904/DTD/svg10.dtd">
<svg version="1.0" xmlns="http://www.w3.org/2000/svg"
 width="700.000000pt" height="700.000000pt" viewBox="0 0 700.000000 700.000000"
 preserveAspectRatio="xMidYMid meet">
<metadata>
Created by potrace 1.14, written by Peter Selinger 2001-2017
</metadata>
<g transform="translate(0.000000,700.000000) scale(0.100000,-0.100000)"
fill="#000000" stroke="none">
<path d="M4747 6763 c-2 -1 -21 -5 -42 -8 -203 -26 -396 -189 -465 -394 -19
-57 -24 -81 -29 -128 -1 -8 -10 -9 -31 -3 -17 5 -34 9 -38 9 -9 1 -70 12 -97
18 -11 2 -49 8 -85 14 -36 5 -79 11 -96 14 -163 24 -532 24 -729 -1 -119 -14
-314 -53 -425 -83 -815 -222 -1507 -779 -1895 -1524 -141 -271 -227 -514 -289
-817 -3 -14 -7 -34 -9 -45 -4 -18 -15 -89 -23 -155 -2 -14 -7 -50 -11 -80 -10
-75 -10 -519 0 -605 7 -63 12 -97 32 -229 3 -21 7 -41 9 -45 2 -3 7 -24 10
-46 36 -234 195 -648 352 -914 163 -278 386 -543 660 -781 108 -94 299 -228
448 -314 86 -50 319 -166 332 -166 3 0 20 -6 37 -14 159 -70 469 -157 642
-181 22 -3 54 -8 70 -10 17 -3 44 -7 60 -10 145 -23 601 -24 720 -1 11 2 45 7
75 10 120 15 379 74 485 111 220 76 247 87 405 164 52 25 98 47 103 49 4 2 7
-2 7 -8 0 -20 61 -101 119 -156 71 -68 180 -127 282 -150 13 -3 56 -7 94 -9
227 -12 443 115 546 320 48 97 67 185 63 285 -4 94 -9 119 -41 200 -31 78 -67
133 -129 194 l-46 46 28 38 c16 20 34 44 41 52 7 8 26 33 42 55 17 22 34 45
38 50 21 27 106 158 146 225 185 311 341 747 382 1075 3 22 7 51 10 65 27 139
27 685 0 790 -2 8 -7 40 -10 70 -3 30 -10 71 -15 90 -5 19 -11 51 -14 70 -12
77 -97 373 -126 435 -5 11 -25 60 -45 108 -161 397 -461 817 -786 1099 -30 26
-65 56 -79 68 -14 12 -64 52 -112 88 -49 36 -88 69 -88 74 0 5 11 21 25 36 34
37 90 145 110 214 27 95 23 245 -10 338 -84 238 -293 391 -549 403 -31 2 -58
2 -59 0z"/>
</g>
</svg>
